<?xml version="1.0" standalone="no"?>
<!DOCTYPE svg PUBLIC "-//W3C//DTD SVG 20010904//EN"
 "http://www.w3.org/TR/2001/REC-SVG-20010904/DTD/svg10.dtd">
<svg version="1.0" xmlns="http://www.w3.org/2000/svg"
 width="195.000000pt" height="156.000000pt" viewBox="0 0 195.000000 156.000000"
 preserveAspectRatio="xMidYMid meet">

<g transform="translate(0.000000,156.000000) scale(0.100000,-0.100000)"
fill="#000000" stroke="none">
<path d="M685 1544 c-168 -26 -302 -84 -419 -180 -146 -120 -230 -280 -257
-488 -22 -166 17 -359 102 -503 43 -73 168 -197 242 -242 299 -177 748 -171
1120 15 225 113 386 278 446 459 127 383 -182 773 -719 910 -177 44 -351 55
-515 29z m625 -649 c0 -198 1 -205 20 -205 11 0 20 -5 20 -10 0 -7 -24 -10
-62 -8 -54 3 -63 6 -61 21 1 17 -1 17 -18 -2 -14 -15 -32 -21 -60 -21 -75 0
-123 82 -99 169 18 68 96 109 145 77 l25 -16 0 94 c0 90 -1 95 -22 99 -13 2 7
5 45 6 l67 1 0 -205z m-846 29 c20 -19 20 -28 1 -44 -21 -17 -48 -4 -42 20 7
26 -7 34 -23 14 -10 -11 -10 -18 -2 -26 21 -21 14 -73 -13 -98 -21 -20 -37
-24 -88 -26 -79 -2 -77 -1 -77 -19 0 -12 15 -15 75 -15 99 0 139 -17 155 -64
10 -31 9 -42 -7 -73 -27 -54 -73 -75 -155 -71 -72 4 -108 24 -108 61 0 25 28
57 49 57 11 0 7 7 -12 23 -23 18 -28 29 -25 57 2 24 10 38 26 46 19 9 20 13 8
23 -8 6 -17 23 -20 36 -17 66 51 116 133 97 35 -8 47 -7 58 4 19 18 48 18 67
-2z m216 -23 c71 -52 66 -177 -10 -216 -38 -20 -115 -19 -150 1 -95 57 -73
207 35 237 33 9 98 -2 125 -22z m252 19 c73 -21 113 -104 84 -173 -20 -50 -68
-77 -135 -77 -47 0 -57 4 -86 33 -19 19 -37 46 -41 60 -16 66 25 137 90 156
42 12 46 12 88 1z m73 -331 c0 -17 -6 -25 -22 -27 -22 -3 -28 6 -24 37 2 7 -4
11 -11 9 -7 -3 -12 -16 -10 -29 11 -101 -5 -120 -110 -128 -56 -5 -73 -10 -73
-21 0 -12 20 -16 98 -20 89 -4 101 -7 118 -29 37 -46 16 -121 -45 -157 -40
-24 -144 -24 -179 -1 -48 32 -43 90 10 103 l26 7 -26 14 c-47 24 -47 86 0 107
19 9 19 10 1 28 -28 28 -24 82 8 107 29 23 101 29 135 11 13 -8 19 -7 19 0 0
16 42 29 65 20 12 -4 20 -16 20 -31z m275 23 c27 -22 18 -55 -14 -50 -15 2
-20 9 -19 26 2 13 -3 22 -11 22 -17 0 -29 -27 -16 -35 18 -11 11 -74 -10 -95
-22 -22 -45 -29 -115 -32 -37 -2 -50 -7 -50 -18 0 -12 19 -16 93 -20 88 -5 95
-7 119 -34 71 -84 -47 -196 -176 -167 -86 19 -108 86 -38 116 18 8 26 14 18
15 -49 1 -68 75 -27 108 21 16 23 21 11 33 -8 8 -17 26 -20 41 -6 22 -1 33 25
59 30 30 34 31 94 27 44 -4 68 -1 81 8 24 18 28 18 55 -4z m-612 -32 c28 -27
46 -73 34 -85 -3 -3 -36 -5 -74 -5 l-68 0 0 -38 c0 -79 52 -104 111 -55 18 15
30 21 27 13 -9 -29 -57 -54 -105 -54 -62 0 -98 24 -119 80 -34 89 23 174 116
174 40 0 53 -5 78 -30z m812 -10 c-1 -33 -1 -34 -15 -15 -29 41 -38 46 -68 43
-24 -2 -33 -9 -35 -24 -2 -17 7 -25 53 -44 71 -29 92 -57 79 -108 -13 -52 -61
-75 -138 -66 l-56 7 0 44 c0 27 4 42 10 38 6 -3 10 -12 10 -19 0 -25 40 -56
74 -56 66 0 54 49 -19 80 -74 32 -92 79 -49 129 26 31 30 32 90 29 l64 -3 0
-35z"/>
<path d="M1150 891 c-11 -21 -14 -142 -4 -178 8 -31 31 -36 54 -13 17 17 20
34 20 103 0 51 -5 88 -12 95 -18 18 -46 14 -58 -7z"/>
<path d="M284 896 c-3 -7 -4 -35 -2 -62 3 -42 6 -49 26 -52 21 -3 22 0 22 62
0 60 -2 66 -20 66 -11 0 -23 -6 -26 -14z"/>
<path d="M251 621 c-17 -31 -13 -59 11 -75 44 -31 124 -12 135 32 10 42 -8 57
-75 60 -52 3 -62 0 -71 -17z"/>
<path d="M566 895 c-3 -9 -6 -56 -6 -105 0 -68 4 -91 16 -101 41 -34 73 54 58
159 -8 51 -12 57 -35 60 -17 2 -29 -3 -33 -13z"/>
<path d="M861 891 c-16 -29 -14 -173 2 -195 18 -24 50 -17 58 14 9 32 9 138 0
170 -9 32 -46 39 -60 11z"/>
<path d="M827 593 c-11 -11 -8 -121 3 -128 30 -19 54 67 34 119 -6 16 -26 21
-37 9z"/>
<path d="M792 318 c-16 -16 -16 -70 0 -86 17 -17 89 -15 116 4 24 17 30 62 10
82 -16 16 -110 16 -126 0z"/>
<path d="M1106 584 c-20 -52 4 -138 33 -120 15 10 24 70 16 105 -7 34 -38 43
-49 15z"/>
<path d="M1069 303 c-17 -45 6 -77 60 -81 55 -4 91 18 91 56 0 41 -17 52 -82
52 -55 0 -59 -2 -69 -27z"/>
<path d="M566 578 c-13 -49 -7 -68 20 -68 23 0 25 3 22 42 -3 49 -31 66 -42
26z"/>
</g>
</svg>
