<?xml version="1.0" standalone="no"?>
<!DOCTYPE svg PUBLIC "-//W3C//DTD SVG 20010904//EN"
 "http://www.w3.org/TR/2001/REC-SVG-20010904/DTD/svg10.dtd">
<svg version="1.0" xmlns="http://www.w3.org/2000/svg"
 width="300.000000pt" height="115.000000pt" viewBox="0 0 300.000000 115.000000"
 preserveAspectRatio="xMidYMid meet">

<g transform="translate(0.000000,115.000000) scale(0.100000,-0.100000)"
fill="#000000" stroke="none">
<path d="M48 985 c11 -16 39 -54 60 -84 l40 -55 -33 -60 c-43 -79 -59 -153
-52 -231 7 -71 37 -158 70 -198 l22 -29 37 53 37 53 -22 40 c-27 52 -29 162
-4 220 l17 39 23 -21 c12 -12 42 -24 67 -28 l45 -7 -132 139 c-72 76 -146 153
-164 169 l-32 30 21 -30z"/>
<path d="M340 971 c-43 -13 -140 -66 -140 -75 0 -1 22 -19 49 -39 l50 -38 43
23 c62 33 184 32 246 0 l44 -23 39 27 c66 45 67 50 12 84 -26 17 -70 37 -97
45 -66 20 -178 18 -246 -4z"/>
<path d="M1128 873 l42 -4 0 -284 0 -284 -37 -4 c-21 -2 18 -4 87 -4 69 1 104
2 78 4 l-48 4 0 140 c0 76 3 139 8 139 6 -1 203 -253 210 -271 2 -4 -7 -9 -20
-12 -13 -2 27 -4 87 -4 61 0 96 2 79 6 -26 5 -56 36 -168 174 l-136 169 106
113 c72 77 115 115 133 118 14 2 -5 4 -44 4 -38 0 -55 -2 -37 -4 17 -2 32 -7
32 -9 0 -9 -234 -254 -243 -254 -4 0 -6 57 -5 128 l3 127 45 6 c25 3 -13 6
-85 6 -71 0 -111 -2 -87 -4z"/>
<path d="M1710 871 l35 -6 3 -282 2 -282 -32 -4 c-18 -2 12 -4 67 -4 55 0 85
2 68 4 l-33 4 -2 287 -3 287 -70 1 c-47 1 -58 0 -35 -5z"/>
<path d="M746 786 l-37 -54 18 -34 c24 -44 24 -168 0 -222 -17 -37 -18 -38
-36 -22 -11 10 -39 20 -63 23 l-43 6 62 -69 c34 -38 105 -112 158 -164 l97
-95 -59 84 -60 83 41 80 c40 78 41 82 41 182 -1 105 -21 179 -63 234 l-18 23
-38 -55z"/>
<path d="M1995 641 c-25 -11 -52 -41 -55 -61 -6 -40 0 -50 30 -50 31 0 33 5
30 53 -2 39 16 57 61 57 47 0 69 -27 69 -87 0 -50 -14 -66 -77 -88 -129 -46
-143 -57 -143 -114 0 -55 70 -91 137 -71 l28 8 -32 1 c-60 2 -86 86 -40 129
19 17 107 62 124 62 3 0 3 -29 1 -65 -3 -47 -10 -73 -27 -97 l-24 -33 24 22
23 23 21 -26 c17 -21 30 -27 64 -27 23 0 47 5 53 11 7 7 0 10 -23 9 l-34 -2
-5 140 c-5 152 -13 175 -60 200 -31 16 -112 19 -145 6z"/>
<path d="M2803 640 c-27 -11 -63 -66 -63 -97 0 -56 29 -82 131 -119 57 -20 69
-31 69 -68 0 -36 -7 -48 -35 -64 -20 -11 -20 -11 0 -12 44 0 95 61 95 113 0
37 -35 73 -88 93 -125 45 -132 50 -132 88 0 43 28 66 81 66 38 0 55 -13 82
-65 l16 -30 1 47 c0 38 -3 47 -17 47 -10 0 -40 3 -68 6 -27 2 -60 1 -72 -5z"/>
<path d="M2263 633 l37 -4 0 -145 0 -146 29 -29 c16 -16 38 -29 48 -29 10 0
29 -3 43 -6 25 -5 25 -5 -2 11 -15 8 -32 24 -38 35 -5 10 -10 86 -10 169 l0
151 -72 -2 c-41 -1 -56 -3 -35 -5z"/>
<path d="M2518 633 l32 -4 0 -114 c0 -63 -5 -126 -11 -142 -13 -35 -58 -83
-78 -84 -10 0 -12 -2 -4 -6 16 -6 51 19 74 54 l19 28 0 -37 0 -38 68 2 c37 0
52 3 35 5 l-33 4 0 170 0 169 -67 -2 c-38 0 -53 -3 -35 -5z"/>
<path d="M2730 347 c0 -52 1 -54 28 -54 15 0 43 -3 62 -7 l35 -7 -31 14 c-33
16 -74 61 -74 83 0 7 -4 16 -10 19 -6 4 -10 -14 -10 -48z"/>
<path d="M257 312 l-48 -37 28 -23 c56 -45 130 -66 234 -67 90 0 99 2 172 38
42 21 77 42 77 46 0 5 -20 25 -45 46 l-45 37 -48 -23 c-64 -32 -169 -32 -229
-1 -23 12 -44 22 -45 22 -2 0 -25 -17 -51 -38z"/>
</g>
</svg>
