<?xml version="1.0" encoding="UTF-8"?>
<svg version="1.1" xmlns="http://www.w3.org/2000/svg" width="700" height="226">
<path d="M0 0 C23.0218223 19.77645528 37.91001423 45.12254214 40.3125 75.6875 C42.10347067 104.77633002 33.04230433 133.33636905 13.80322266 155.41992188 C-1.52279789 172.27137162 -20.75692715 182.97954268 -42.6875 188.6875 C-44.10482422 189.05681641 -44.10482422 189.05681641 -45.55078125 189.43359375 C-67.46701663 194.03251434 -90.39427177 190.48068539 -110.6875 181.6875 C-111.75871094 181.2234375 -112.82992187 180.759375 -113.93359375 180.28125 C-138.02281693 169.00411041 -157.26908595 147.25171665 -166.71801758 122.49365234 C-167.4075117 120.56759491 -168.05722892 118.63371101 -168.6875 116.6875 C-168.89777832 116.04603027 -169.10805664 115.40456055 -169.32470703 114.74365234 C-177.65022369 87.98730072 -173.71650455 58.03396043 -160.9921875 33.40625 C-157.4144038 27.05287625 -153.38069266 21.26004875 -148.6875 15.6875 C-148.04425781 14.89859375 -147.40101563 14.1096875 -146.73828125 13.296875 C-110.4924172 -29.31378957 -43.46322531 -34.52398039 0 0 Z M-76 9.125 C-77.4396814 9.18361206 -77.4396814 9.18361206 -78.90844727 9.2434082 C-83.89764787 9.47361128 -88.75821496 9.87841735 -93.6875 10.6875 C-93.6875 11.3475 -93.6875 12.0075 -93.6875 12.6875 C-94.51894531 12.80867188 -95.35039063 12.92984375 -96.20703125 13.0546875 C-97.29371094 13.22226562 -98.38039062 13.38984375 -99.5 13.5625 C-100.57894531 13.72492187 -101.65789062 13.88734375 -102.76953125 14.0546875 C-105.86071793 14.53882338 -105.86071793 14.53882338 -108.6875 16.6875 C-107.95144531 16.73648438 -107.21539062 16.78546875 -106.45703125 16.8359375 C-104.99330078 16.94808594 -104.99330078 16.94808594 -103.5 17.0625 C-102.05560547 17.16691406 -102.05560547 17.16691406 -100.58203125 17.2734375 C-97.67241062 17.68965853 -95.35859226 18.48624096 -92.6875 19.6875 C-92.6875 20.3475 -92.6875 21.0075 -92.6875 21.6875 C-93.3475 22.3475 -94.0075 23.0075 -94.6875 23.6875 C-93.08068359 23.77837891 -93.08068359 23.77837891 -91.44140625 23.87109375 C-90.04425609 23.95548537 -88.64712143 24.04013406 -87.25 24.125 C-86.54294922 24.16431641 -85.83589844 24.20363281 -85.10742188 24.24414062 C-79.80078125 24.57421875 -79.80078125 24.57421875 -78.6875 25.6875 C-75.60189028 25.85214716 -72.52539112 25.96752995 -69.4375 26.0625 C-25.61944847 27.8514521 -25.61944847 27.8514521 -13.8515625 39.80078125 C-12.16575676 42.53314425 -12.22361257 44.41775973 -12.89453125 47.5 C-15.22270642 53.9225522 -17.60681277 58.31039784 -22.3125 63.25 C-22.84593018 63.8179126 -23.37936035 64.3858252 -23.92895508 64.97094727 C-28.11424962 69.31926452 -32.48003336 72.63581256 -37.6875 75.6875 C-39.38095168 76.80352091 -41.06856832 77.92845028 -42.75 79.0625 C-44.71875 80.375 -44.71875 80.375 -46.6875 81.6875 C-46.48125 80.45 -46.275 79.2125 -46.0625 77.9375 C-45.62642876 74.56840165 -45.65346361 72.55908079 -47.6875 69.6875 C-47.0275 69.3575 -46.3675 69.0275 -45.6875 68.6875 C-44.97810428 60.39545225 -46.25230998 54.75472081 -50.6875 47.6875 C-51.83900577 46.35004888 -51.83900577 46.35004888 -54.875 46.0625 C-58.69359233 46.27855335 -58.69359233 46.27855335 -60.44921875 48.66015625 C-61.95443606 50.95989504 -63.33888625 53.29348432 -64.6875 55.6875 C-65.0175 56.0175 -65.3475 56.3475 -65.6875 56.6875 C-65.98106154 60.30809232 -65.53814319 62.56453962 -63.6875 65.6875 C-63.0275 65.6875 -62.3675 65.6875 -61.6875 65.6875 C-61.831875 66.40292969 -61.97625 67.11835937 -62.125 67.85546875 C-63.55736796 75.54449952 -63.9142563 82.87700511 -63.6875 90.6875 C-64.37457031 90.89246094 -65.06164062 91.09742187 -65.76953125 91.30859375 C-66.67058594 91.57800781 -67.57164063 91.84742187 -68.5 92.125 C-69.39332031 92.39183594 -70.28664063 92.65867187 -71.20703125 92.93359375 C-73.04223055 93.49137873 -74.86783726 94.08094575 -76.6875 94.6875 C-75.3675 89.4075 -74.0475 84.1275 -72.6875 78.6875 C-73.6775 78.1925 -73.6775 78.1925 -74.6875 77.6875 C-75.06506808 76.36601173 -75.3893576 75.02914079 -75.6875 73.6875 C-76.3344365 72.0130761 -76.99709426 70.34447379 -77.6875 68.6875 C-77.0275 68.6875 -76.3675 68.6875 -75.6875 68.6875 C-74.74015218 65.4740962 -74.52297579 62.53277553 -74.5 59.1875 C-74.48582031 58.2490625 -74.47164062 57.310625 -74.45703125 56.34375 C-74.69565871 53.59346744 -75.19493693 51.99180789 -76.6875 49.6875 C-79.54074437 48.26087781 -81.52204549 48.37716132 -84.6875 48.6875 C-87.38740662 50.48743774 -89.2293865 51.771273 -90.6875 54.6875 C-90.75905987 56.81139694 -90.7714887 58.93750653 -90.75 61.0625 C-90.74097656 62.20460937 -90.73195312 63.34671875 -90.72265625 64.5234375 C-90.71105469 65.56757812 -90.69945312 66.61171875 -90.6875 67.6875 C-90.6875 71.22954409 -90.86823589 74.67261843 -91.125 78.203125 C-91.21523437 79.45351562 -91.30546875 80.70390625 -91.3984375 81.9921875 C-91.54152344 83.94511719 -91.54152344 83.94511719 -91.6875 85.9375 C-91.78398527 87.26821967 -91.88034086 88.59894874 -91.9765625 89.9296875 C-92.21226533 93.18238655 -92.44929466 96.43498342 -92.6875 99.6875 C-96.72884603 100.50160023 -100.77063179 101.31349659 -104.8125 102.125 C-105.95460938 102.35509766 -107.09671875 102.58519531 -108.2734375 102.82226562 C-109.93632813 103.15581055 -109.93632813 103.15581055 -111.6328125 103.49609375 C-113.15672607 103.80244751 -113.15672607 103.80244751 -114.71142578 104.11499023 C-117.69650262 104.68923184 -120.6870718 105.2004683 -123.6875 105.6875 C-124.41330536 95.52622492 -120.11504994 89.77192741 -113.79296875 82.09765625 C-110.90994392 78.79742189 -107.87364337 75.69442281 -104.6875 72.6875 C-107.73051292 71.16599354 -110.06941033 72.0631966 -113.30078125 72.8125 C-116.59102183 74.01874204 -118.71093165 75.90871629 -121.1796875 78.34765625 C-122.6875 79.6875 -122.6875 79.6875 -125.6875 80.6875 C-132.25094902 89.30202684 -135.52406675 97.89895385 -134.26953125 108.6796875 C-133.15810247 114.42331273 -131.50382108 120.96546209 -126.6875 124.6875 C-124.22574411 124.87467972 -124.22574411 124.87467972 -121.49609375 124.4296875 C-120.46806641 124.29820312 -119.44003906 124.16671875 -118.38085938 124.03125 C-117.30642578 123.8765625 -116.23199219 123.721875 -115.125 123.5625 C-114.07763672 123.43101562 -113.03027344 123.29953125 -111.95117188 123.1640625 C-105.29747606 122.27083795 -99.04800655 120.83280685 -92.6875 118.6875 C-92.84831055 119.28336914 -93.00912109 119.87923828 -93.17480469 120.49316406 C-95.71725907 131.37486882 -94.00612506 146.51621826 -89.328125 156.625 C-86.59984332 161.01275197 -84.66562908 163.01687363 -79.6875 164.6875 C-79.79578125 163.6665625 -79.79578125 163.6665625 -79.90625 162.625 C-81.42679448 146.74375769 -80.40287654 131.49346951 -78.6875 115.6875 C-74.0675 114.0375 -69.4475 112.3875 -64.6875 110.6875 C-64.72230469 111.88503906 -64.75710937 113.08257812 -64.79296875 114.31640625 C-65.26443712 130.91849202 -65.26443712 130.91849202 -60.6875 146.6875 C-60.0275 146.6875 -59.3675 146.6875 -58.6875 146.6875 C-58.625625 147.265 -58.56375 147.8425 -58.5 148.4375 C-57.36722699 151.57440987 -55.34552405 152.77917504 -52.6875 154.6875 C-52.0275 154.3575 -51.3675 154.0275 -50.6875 153.6875 C-50.831875 152.57375 -50.97625 151.46 -51.125 150.3125 C-51.31367213 148.77097634 -51.50109744 147.22929974 -51.6875 145.6875 C-51.78216553 144.94491943 -51.87683105 144.20233887 -51.97436523 143.43725586 C-52.70803641 137.09920704 -52.66722684 130.9879127 -52.3125 124.625 C-52.26867187 123.69623047 -52.22484375 122.76746094 -52.1796875 121.81054688 C-52.08716138 119.97930077 -51.98100268 118.14868402 -51.86010742 116.3190918 C-51.7463796 114.58518486 -51.65992101 112.84924182 -51.6027832 111.11254883 C-51.47410736 108.8649348 -51.298978 106.85411999 -50.6875 104.6875 C-48.46484375 102.70703125 -48.46484375 102.70703125 -45.625 101.5 C-30.01322283 94.15802727 -14.20868087 80.17861463 -7.875 63.9375 C-4.15849627 52.7997499 -5.00767115 43.47601301 -9.6875 32.6875 C-16.94072724 20.36802726 -25.82940005 13.6306724 -39.46875 9.55859375 C-43.92093574 8.50306672 -48.19238928 8.42581384 -52.75 8.5 C-53.59908936 8.50717041 -54.44817871 8.51434082 -55.32299805 8.52172852 C-62.21883969 8.60613677 -69.10969033 8.84327716 -76 9.125 Z " fill="#EA2E39" transform="translate(178.6875,29.3125)"/>
<path d="M0 0 C5.14984454 -0.98092277 8.19893191 0.99816136 12.36328125 3.7109375 C14 5 14 5 15 7 C15.13415472 9.6723621 15.04318541 12.32250488 15 15 C15.84304688 14.71125 16.68609375 14.4225 17.5546875 14.125 C18.65039062 13.75375 19.74609375 13.3825 20.875 13 C22.51082031 12.443125 22.51082031 12.443125 24.1796875 11.875 C27 11 27 11 29 11 C29.20625 10.46375 29.4125 9.9275 29.625 9.375 C31.58125004 5.99602265 33.72745332 3.18916936 37 1 C41.14272426 0.85464125 43.37718802 1.66264351 47 3.625 C49 6 49 6 48.8125 9.75 C48.544375 10.8225 48.27625 11.895 48 13 C49.3303125 13.37125 49.3303125 13.37125 50.6875 13.75 C56.54742976 15.96129425 59.69333663 19.118989 62.28125 24.72265625 C63.56889147 28.80252025 63.38834498 32.77913575 63 37 C62.87818359 38.66482422 62.87818359 38.66482422 62.75390625 40.36328125 C61.84854277 44.73060455 60.13591622 47.50959848 57.625 51.125 C56.82496448 52.31473024 56.02547495 53.50482783 55.2265625 54.6953125 C54.49179687 55.78585938 53.75703125 56.87640625 53 58 C52.51789063 58.84304687 52.03578125 59.68609375 51.5390625 60.5546875 C46.74210469 68.17624991 38.46314206 78.13358109 29.6328125 80.68359375 C25.1007265 81.46190031 21.79594611 81.34463022 17.75 79.0625 C12.84178663 75.50827652 8.92127317 70.7638195 7 65 C5.54926094 48.73498322 12.53273477 33.52116416 21 20 C17.27032089 19.39621998 14.49769905 19.50665615 11 21 C5.23216284 28.2261558 0.97400936 37.57954052 2 47 C2.93902238 49.72992359 2.93902238 49.72992359 4 52 C2.375 52.75 2.375 52.75 0 53 C-5.70334429 50.02950818 -8.9708437 46.08746891 -11 40 C-11.09565314 37.70995138 -11.12984575 35.4170403 -11.125 33.125 C-11.12886719 31.30355469 -11.12886719 31.30355469 -11.1328125 29.4453125 C-11.01884298 26.48880905 -10.68703101 23.86808185 -10 21 C-21.46858092 33.81782574 -29.41228054 49.27312978 -36.54003906 64.79882812 C-39.44521583 71.0572319 -42.62572718 76.62630723 -47 82 C-50.30658275 82 -52.90894932 81.86419856 -55.578125 79.75 C-60.82457638 72.99594765 -59.41234526 64.06364067 -59 56 C-62.97264645 59.39480697 -66.86651444 62.80314312 -70.5 66.5625 C-79.08881517 75.20921729 -89.29002352 82.08152503 -101.6875 83.125 C-106.42512348 82.96432007 -108.34307205 82.58305653 -111.91796875 79.41015625 C-117.36521841 72.73636668 -119.41999725 66.9218197 -119.34765625 58.40625 C-118.46019302 49.71110462 -114.87733034 42.32943267 -109 36 C-108.28203504 34.83066736 -107.59491972 33.64191347 -106.9375 32.4375 C-105.17575605 29.31182526 -103.41058628 26.65164491 -101 24 C-100.34 24 -99.68 24 -99 24 C-98.7525 23.443125 -98.505 22.88625 -98.25 22.3125 C-95.64621953 17.49550614 -91.89270166 13.79538412 -88 10 C-87.071875 8.824375 -87.071875 8.824375 -86.125 7.625 C-84 6 -84 6 -80.6875 5.9375 C-75.46779792 7.44148196 -71.66618465 9.35725999 -68.70703125 14.05078125 C-65.51471827 20.7235221 -63.89544636 26.61843976 -66.375 33.75 C-71.18865157 44.46532028 -79.61999656 55.69423313 -90.83203125 60.1171875 C-95.80743476 61.54650999 -100.85894531 62.4287717 -106 63 C-107.04336284 66.39092922 -107.22584687 69.4617323 -107 73 C-106.34 73.99 -105.68 74.98 -105 76 C-97.95133573 77.34974422 -92.77109672 73.74301105 -87 70 C-79.34360476 64.57904862 -72.28555043 58.63617068 -65.4375 52.2265625 C-63 50 -63 50 -60.4375 48.1484375 C-54.63849457 43.03713463 -52.38368283 35.27041751 -49.625 28.25 C-41.86538064 8.86538064 -41.86538064 8.86538064 -38 5 C-32.70804816 4.38465676 -30.14331764 5.77741961 -26 9 C-25.360625 9.433125 -24.72125 9.86625 -24.0625 10.3125 C-22.65436993 12.54894187 -22.74035462 14.27415309 -23.21484375 16.83203125 C-24.62564469 20.72752638 -26.99591513 24.03572442 -29.30859375 27.44921875 C-30.99758891 29.87138625 -30.99758891 29.87138625 -32.03515625 32.14453125 C-33 34 -33 34 -34.47265625 35.46875 C-40.10512097 41.11562 -42.49110986 50.62750718 -45 58 C-43.55513591 56.55513591 -42.82988434 54.86532422 -41.8828125 53.0546875 C-32.07066556 34.56409683 -21.01333788 17.87390882 -4.28515625 4.91015625 C-1.814288 3.02762419 -1.814288 3.02762419 0 0 Z M37.8203125 22.54296875 C28.25806561 35.44995006 17.38661958 52.4387287 18 69 C18.33 69.66 18.66 70.32 19 71 C27.0434947 69.09496178 34.27327727 63.69619054 39 57 C39.99 56.505 39.99 56.505 41 56 C41 55.34 41 54.68 41 54 C42.485 53.505 42.485 53.505 44 53 C49.3445508 47.09995258 54.66468558 40.89204909 54.8125 32.625 C54.3468665 27.64937349 53.23335662 23.46671325 51 19 C44.73994174 14.82662783 42.00198903 17.3747062 37.8203125 22.54296875 Z M-78.0625 23.875 C-78.79597656 24.40867188 -79.52945313 24.94234375 -80.28515625 25.4921875 C-80.85105469 25.98976562 -81.41695312 26.48734375 -82 27 C-82 27.66 -82 28.32 -82 29 C-82.59683594 29.24878906 -83.19367187 29.49757812 -83.80859375 29.75390625 C-86.32215525 31.18318632 -87.41590812 32.57958043 -89.0625 34.9375 C-91.30103444 38.11420007 -93.5975509 40.77060374 -96.51953125 43.33203125 C-98.5068683 45.5710627 -99.49542595 47.94895151 -100.6875 50.6875 C-101.12449219 51.68136719 -101.56148437 52.67523438 -102.01171875 53.69921875 C-102.33785156 54.45847656 -102.66398438 55.21773437 -103 56 C-93.72631381 55.60537506 -87.89195797 50.19305667 -81.6875 43.6875 C-76.5499462 37.79089859 -72.83414471 32.43124713 -72.75 24.4375 C-72.8325 23.303125 -72.915 22.16875 -73 21 C-74.95060183 21 -76.56018393 22.76747246 -78.0625 23.875 Z " fill="#EA2E39" transform="translate(633,116)"/>
<path d="M0 0 C4.95892329 0.62354196 8.68436801 1.3905481 13 4 C15 7 15 7 14.8203125 9.38671875 C12.53333196 16.67238534 6.51024554 22.68275996 1.4921875 28.26953125 C-0.32433231 30.37612359 -1.66048389 32.56451616 -3 35 C-4.29628061 37.04974372 -5.60380172 39.09198208 -6.9140625 41.1328125 C-8.1511279 43.11406897 -8.1511279 43.11406897 -9 46 C-9.43441406 46.4125 -9.86882812 46.825 -10.31640625 47.25 C-12.78583485 49.81683065 -14.2925552 52.87316502 -15.9375 56 C-16.29158936 56.66990967 -16.64567871 57.33981934 -17.01049805 58.0300293 C-19.86254988 63.53111891 -22.1418134 69.08432383 -24 75 C-24.29777344 75.92167969 -24.59554688 76.84335938 -24.90234375 77.79296875 C-26.50444516 82.80280799 -26.50444516 82.80280799 -27 88 C-24.86072103 85.4023041 -22.86785377 82.80178065 -21 80 C-19.12963004 77.19444506 -17.10458741 74.63073426 -15 72 C-14.319375 70.96875 -13.63875 69.9375 -12.9375 68.875 C-11.40180357 66.59622466 -10.11439762 64.72996169 -8 63 C-7.34 63 -6.68 63 -6 63 C-5.773125 62.29230469 -5.54625 61.58460938 -5.3125 60.85546875 C-3.7412378 57.4370382 -1.56557139 55.0006193 1 52.3125 C1.48694336 51.79284668 1.97388672 51.27319336 2.47558594 50.73779297 C7.20865245 45.71522821 12.04829733 40.80706531 17 36 C17.62648438 35.34386719 18.25296875 34.68773437 18.8984375 34.01171875 C22.05849785 30.9017046 23.37056648 30.04995504 27.9375 29.6875 C32.87935908 30.76097624 37.02167698 33.97609549 40 38 C40.47031411 40.91685192 40.48472969 42.32289322 38.75 44.74609375 C38.1725 45.30425781 37.595 45.86242187 37 46.4375 C32.73222639 50.98172858 29.94019254 56.09786064 26.9921875 61.53515625 C25.56705228 64.01377379 24.23100502 66.05035359 22.51171875 68.28125 C19.34782189 72.6210498 17.69480211 77.39882125 15.9375 82.4375 C15.59460938 83.40453857 15.25171875 84.37157715 14.8984375 85.36791992 C8.9255898 101.80216243 8.9255898 101.80216243 8 119 C8.99496231 120.00501244 9.99460928 121.00541994 11 122 C10.6875 124.6875 10.6875 124.6875 10 127 C4.10110973 126.64606658 1.09517152 125.28564461 -3 121 C-11.81815816 99.92097809 2.18101365 73.17760225 10 54 C10.98166706 51.65781146 11.98275621 49.32702828 13 47 C9.02351315 49.8938831 6.51141048 52.84102988 3.8125 56.9375 C0.6630941 61.64355493 -2.62306955 66.17533918 -6.125 70.625 C-9.85208203 75.38821511 -13.22905428 80.27756217 -16.3984375 85.4296875 C-18.42481379 88.68177432 -20.61590409 91.80739452 -22.8359375 94.9296875 C-24.14804637 96.99917822 -24.14804637 96.99917822 -24.4765625 99.6328125 C-25 102 -25 102 -28 104 C-30.453125 104.36328125 -30.453125 104.36328125 -33 104 C-34.984375 102.35546875 -34.984375 102.35546875 -36.75 100.1875 C-37.34296875 99.47980469 -37.9359375 98.77210938 -38.546875 98.04296875 C-42.70241477 92.2006373 -41.38085376 84.1865929 -40.57421875 77.4375 C-36.65458248 54.7372752 -23.01105302 35.2350138 -10.55712891 16.36816406 C-8.24095395 12.84560259 -5.96191934 9.29961292 -3.6875 5.75 C-3.11902344 4.86417236 -3.11902344 4.86417236 -2.5390625 3.96044922 C-1.69218986 2.64063202 -0.84600211 1.32037538 0 0 Z " fill="#EA2E39" transform="translate(479,93)"/>
<path d="M0 0 C20 0 20 0 24.3359375 4.3046875 C25.27719191 6.17730227 26.16448868 8.07787441 27 10 C28.09704963 11.84804127 29.214563 13.68407827 30.3515625 15.5078125 C31.44692148 17.37774675 32.53806044 19.25015927 33.625 21.125 C34.72038405 23.00317029 35.81672283 24.88078412 36.9140625 26.7578125 C37.3879541 27.5739502 37.8618457 28.39008789 38.35009766 29.23095703 C40.50961306 32.85528726 42.76397747 36.42236396 45 40 C45.33 26.8 45.66 13.6 46 0 C51.61 0 57.22 0 63 0 C63 22.44 63 44.88 63 68 C56.4 68 49.8 68 43 68 C37.72701458 62.0332007 37.72701458 62.0332007 36.36328125 58.84375 C33.94205545 53.65492389 30.92233774 48.8839896 27.88745117 44.04101562 C24.55606017 38.71610166 21.28423318 33.35412805 18 28 C17.67 41.2 17.34 54.4 17 68 C11.39 68 5.78 68 0 68 C0 45.56 0 23.12 0 0 Z " fill="#EA2E39" transform="translate(502,24)"/>
<path d="M0 0 C5.56875 -0.0825 11.1375 -0.165 16.875 -0.25 C18.61120605 -0.28641602 20.34741211 -0.32283203 22.13623047 -0.36035156 C40.13848173 -0.58284801 40.13848173 -0.58284801 46.95068359 5.83886719 C51.15029489 10.49266244 52.16981739 13.41557354 52.25 19.75 C52.27578125 20.96171875 52.3015625 22.1734375 52.328125 23.421875 C51.91157411 27.96426323 50.63042933 31.2506852 47.5 34.609375 C45.03899398 36.480765 42.57340646 38.2843957 40 40 C40.44915771 40.74161377 40.89831543 41.48322754 41.36108398 42.24731445 C43.02768011 45.00223822 44.69161273 47.75874745 46.35375977 50.51635742 C47.07339988 51.70905675 47.79409512 52.90112011 48.51586914 54.0925293 C49.55372503 55.80609865 50.5874641 57.5221593 51.62109375 59.23828125 C52.2442749 60.26993408 52.86745605 61.30158691 53.50952148 62.36450195 C55 65 55 65 56 68 C49.07 68 42.14 68 35 68 C30.1875 58.8125 30.1875 58.8125 28.68823242 55.94458008 C26.92122278 52.57951078 25.15689068 49.25700507 23.17578125 46.01171875 C22 44 22 44 22 42 C20.35 42 18.7 42 17 42 C17 50.58 17 59.16 17 68 C11.39 68 5.78 68 0 68 C0 45.56 0 23.12 0 0 Z M17 14 C17 18.95 17 23.9 17 29 C23.3355141 29.29240834 27.38432415 28.97974637 33 26 C35.27180354 24.12331681 35.27180354 24.12331681 35.4375 21.125 C35.29506318 17.87883923 35.29506318 17.87883923 32.8984375 15.8203125 C29.36109794 13.59874884 27.32361478 13.58288425 23.1875 13.75 C20.1246875 13.87375 20.1246875 13.87375 17 14 Z " fill="#EA2E39" transform="translate(640,24)"/>
<path d="M0 0 C5.56875 -0.0825 11.1375 -0.165 16.875 -0.25 C18.61120605 -0.28641602 20.34741211 -0.32283203 22.13623047 -0.36035156 C40.06094345 -0.58176309 40.06094345 -0.58176309 46.95068359 5.80957031 C52.12385683 11.43565087 52.29391828 16.3554633 52.2109375 23.83203125 C51.90843067 28.37523573 50.84442588 31.20596827 47.5703125 34.390625 C45.17378777 36.4652285 42.63568386 38.24287743 40 40 C40.37809814 40.63502441 40.75619629 41.27004883 41.14575195 41.92431641 C42.87015948 44.82326673 44.59135498 47.72411159 46.3125 50.625 C46.90740234 51.62402344 47.50230469 52.62304688 48.11523438 53.65234375 C48.69208984 54.62558594 49.26894531 55.59882812 49.86328125 56.6015625 C50.39219971 57.49182129 50.92111816 58.38208008 51.46606445 59.29931641 C53.08123008 62.14301561 54.53744161 65.07488323 56 68 C49.07 68 42.14 68 35 68 C32.82827844 64.04436429 30.66243074 60.08570994 28.5 56.125 C27.87996094 54.99707031 27.25992187 53.86914062 26.62109375 52.70703125 C26.03457031 51.63066406 25.44804687 50.55429688 24.84375 49.4453125 C24.29912109 48.45031738 23.75449219 47.45532227 23.19335938 46.43017578 C22 44 22 44 22 42 C20.35 42 18.7 42 17 42 C17 50.58 17 59.16 17 68 C11.39 68 5.78 68 0 68 C0 45.56 0 23.12 0 0 Z M16 14 C16 18.95 16 23.9 16 29 C22.65853818 29.27363856 27.12113314 29.18438622 33 26 C35.27180354 24.12331681 35.27180354 24.12331681 35.4375 21.125 C35.29271902 17.88512652 35.29271902 17.88512652 32.9296875 15.8203125 C29.25043598 13.53427089 26.98153838 13.5894752 22.6875 13.75 C20.480625 13.8325 18.27375 13.915 16 14 Z " fill="#EA2E39" transform="translate(381,24)"/>
<path d="M0 0 C1.58206057 0.00667536 3.16410534 0.0186375 4.74609375 0.03515625 C5.55240234 0.03966797 6.35871094 0.04417969 7.18945312 0.04882812 C9.18753131 0.06065107 11.18557158 0.07858711 13.18359375 0.09765625 C16.29235904 6.12619077 18.98755645 12.24329953 21.5546875 18.51953125 C21.9588942 19.50076965 22.36310089 20.48200806 22.77955627 21.49298096 C24.062892 24.61005358 25.34210151 27.72879925 26.62109375 30.84765625 C27.89497693 33.9457556 29.16969465 37.04351064 30.44448853 40.14123535 C31.26044377 42.1251708 32.07554394 44.10945816 32.88973999 46.09411621 C35.3596697 52.11277764 37.86146344 58.11567107 40.42602539 64.09472656 C41.18359375 66.09765625 41.18359375 66.09765625 41.18359375 68.09765625 C34.91359375 68.09765625 28.64359375 68.09765625 22.18359375 68.09765625 C18.18359375 60.09765625 18.18359375 60.09765625 17.18359375 55.09765625 C8.60359375 55.09765625 0.02359375 55.09765625 -8.81640625 55.09765625 C-9.14640625 56.74765625 -9.47640625 58.39765625 -9.81640625 60.09765625 C-10.80640625 62.73765625 -11.79640625 65.37765625 -12.81640625 68.09765625 C-19.08640625 68.09765625 -25.35640625 68.09765625 -31.81640625 68.09765625 C-31.09436263 64.48743815 -30.46557957 61.94308074 -29.06982422 58.66894531 C-28.7120993 57.82325989 -28.35437439 56.97757446 -27.98580933 56.10626221 C-27.59732819 55.20107849 -27.20884705 54.29589478 -26.80859375 53.36328125 C-26.20303146 51.936138 -26.20303146 51.936138 -25.5852356 50.48016357 C-24.29173275 47.43408369 -22.99181757 44.39079238 -21.69140625 41.34765625 C-20.41765762 38.35604207 -19.14526445 35.36385525 -17.87335205 32.37145996 C-17.0421011 30.41611399 -16.21003613 28.46111387 -15.37713623 26.50646973 C-12.48604885 19.71164175 -9.65216738 12.89523789 -6.89059448 6.04669189 C-4.47991282 0.11463441 -4.47991282 0.11463441 0 0 Z M4.18359375 21.09765625 C3.39147446 22.99330051 2.59991799 24.88917996 1.80859375 26.78515625 C1.36773437 27.84089844 0.926875 28.89664063 0.47265625 29.984375 C0.04726563 31.01175781 -0.378125 32.03914063 -0.81640625 33.09765625 C-1.20054687 33.99097656 -1.5846875 34.88429688 -1.98046875 35.8046875 C-2.98766325 38.16064701 -2.98766325 38.16064701 -2.81640625 41.09765625 C2.13359375 41.09765625 7.08359375 41.09765625 12.18359375 41.09765625 C9.87359375 34.49765625 7.56359375 27.89765625 5.18359375 21.09765625 C4.85359375 21.09765625 4.52359375 21.09765625 4.18359375 21.09765625 Z " fill="#EA2E39" transform="translate(332.81640625,23.90234375)"/>
<path d="M0 0 C15.18 0 30.36 0 46 0 C46 4.62 46 9.24 46 14 C36.1 14 26.2 14 16 14 C16 17.96 16 21.92 16 26 C25.57 26 35.14 26 45 26 C45 30.62 45 35.24 45 40 C35.43 40 25.86 40 16 40 C16 44.29 16 48.58 16 53 C26.56 53 37.12 53 48 53 C48 57.95 48 62.9 48 68 C32.16 68 16.32 68 0 68 C0 45.56 0 23.12 0 0 Z " fill="#EA2E39" transform="translate(580,24)"/>
<path d="M0 0 C5.56875 -0.0825 11.1375 -0.165 16.875 -0.25 C18.61120605 -0.28641602 20.34741211 -0.32283203 22.13623047 -0.36035156 C39.72536133 -0.57636192 39.72536133 -0.57636192 46.62841797 5.4128418 C51.71035294 11.06194893 52.45140807 16.67118246 52.31640625 23.98828125 C51.72619574 29.60621096 49.64161372 33.35838628 45.6875 37.3125 C36.19271749 43.27434018 27.91580539 43.10201687 17 43 C17 51.25 17 59.5 17 68 C11.39 68 5.78 68 0 68 C0 45.56 0 23.12 0 0 Z M17 14 C17 18.95 17 23.9 17 29 C25.49728993 29.51542641 25.49728993 29.51542641 33 26 C34.58467411 22.89667986 35.31823335 21.14564006 34.375 17.75 C32.69575834 15.61278334 31.53553637 14.98842943 29 14 C25.94985072 13.75889241 25.94985072 13.75889241 22.75 13.875 C20.8525 13.91625 18.955 13.9575 17 14 Z " fill="#EA2E39" transform="translate(252,24)"/>
<path d="M0 0 C18.48 0 36.96 0 56 0 C56 4.95 56 9.9 56 15 C49.73 15 43.46 15 37 15 C37 32.49 37 49.98 37 68 C31.06 68 25.12 68 19 68 C19 50.51 19 33.02 19 15 C12.73 15 6.46 15 0 15 C0 10.05 0 5.1 0 0 Z " fill="#EA2E39" transform="translate(438,24)"/>
</svg>
