<?xml version="1.0" encoding="utf-8"?>
<!-- Generator: Adobe Illustrator 24.1.1, SVG Export Plug-In . SVG Version: 6.00 Build 0)  -->
<svg version="1.1" id="Capa_1" xmlns="http://www.w3.org/2000/svg" xmlns:xlink="http://www.w3.org/1999/xlink" x="0px" y="0px"
	 viewBox="0 0 156 180" style="enable-background:new 0 0 156 180;" xml:space="preserve">
<style type="text/css">
	.st0{opacity:0.6;}
	.st1{fill:#00BCE4;}
	.st2{fill:#979798;}
	.st3{fill:#FFFFFF;}
</style>
<g>
	<g>
		<g class="st0">
			<path d="M129.3,151l3.9-10.6l3.9,10.6H129.3z M136.3,133.7h-6.1L119,162.3h6.1l2.4-6.5H139l2.5,6.5h6.3L136.3,133.7z M67.4,162.3
				v-18.7L79,162.3h5.8v-28.6h-5.4v19.1l-11.7-19.1h-5.6v28.6H67.4z M39.4,151l3.9-10.6l3.9,10.6H39.4z M46.4,133.7h-6.1l-11.2,28.6
				h6.1l2.4-6.5h11.4l2.5,6.5h6.3L46.4,133.7z M6.3,160.3c1.9,1.7,4.7,2.5,8.3,2.5c2.5,0,4.6-0.3,6.2-1c1.7-0.7,3-1.8,3.9-3.2
				c0.9-1.4,1.4-3,1.4-4.6c0-1.8-0.4-3.3-1.1-4.6s-1.8-2.2-3.2-2.9c-1.3-0.7-3.4-1.4-6.2-2.1s-4.6-1.3-5.3-1.9
				c-0.6-0.5-0.9-1.1-0.9-1.7c0-0.7,0.3-1.3,0.9-1.8c1-0.7,2.3-1,3.9-1c1.6,0,2.8,0.3,3.7,1c0.8,0.6,1.3,1.7,1.6,3.2l5.8-0.3
				c-0.1-2.6-1-4.7-2.9-6.3c-1.8-1.6-4.5-2.4-8.1-2.4c-2.2,0-4.1,0.3-5.6,1c-1.6,0.7-2.7,1.6-3.6,2.9c-0.8,1.3-1.2,2.6-1.2,4.1
				c0,2.3,0.9,4.2,2.6,5.8c1.3,1.1,3.4,2.1,6.5,2.8c2.4,0.6,4,1,4.6,1.3c1,0.4,1.7,0.8,2.1,1.2c0.4,0.5,0.6,1.1,0.6,1.7
				c0,1.1-0.5,2-1.4,2.8c-0.9,0.8-2.3,1.2-4.2,1.2c-1.8,0-3.2-0.4-4.2-1.3c-1-0.9-1.7-2.3-2.1-4.2L2.8,153
				C3.2,156.2,4.3,158.7,6.3,160.3z"/>
		</g>
		<g>
			<path class="st1" d="M131.3,151l3.9-10.6l3.9,10.6H131.3z M138.3,133.7h-6.1L121,162.3h6.1l2.4-6.5H141l2.5,6.5h6.3L138.3,133.7z
				 M69.4,162.3v-18.7L81,162.3h5.8v-28.6h-5.4v19.1l-11.7-19.1h-5.6v28.6H69.4z M41.4,151l3.9-10.6l3.9,10.6H41.4z M48.4,133.7
				h-6.1l-11.2,28.6h6.1l2.4-6.5h11.4l2.5,6.5h6.3L48.4,133.7z M8.3,160.3c1.9,1.7,4.7,2.5,8.3,2.5c2.5,0,4.6-0.3,6.2-1
				c1.7-0.7,3-1.8,3.9-3.2c0.9-1.4,1.4-3,1.4-4.6c0-1.8-0.4-3.3-1.1-4.6s-1.8-2.2-3.2-2.9c-1.3-0.7-3.4-1.4-6.2-2.1
				s-4.6-1.3-5.3-1.9c-0.6-0.5-0.9-1.1-0.9-1.7c0-0.7,0.3-1.3,0.9-1.8c1-0.7,2.3-1,3.9-1c1.6,0,2.8,0.3,3.7,1
				c0.8,0.6,1.3,1.7,1.6,3.2l5.8-0.3c-0.1-2.6-1-4.7-2.9-6.3c-1.8-1.6-4.5-2.4-8.1-2.4c-2.2,0-4.1,0.3-5.6,1
				c-1.6,0.7-2.7,1.6-3.6,2.9c-0.8,1.3-1.2,2.6-1.2,4.1c0,2.3,0.9,4.2,2.6,5.8c1.3,1.1,3.4,2.1,6.5,2.8c2.4,0.6,4,1,4.6,1.3
				c1,0.4,1.7,0.8,2.1,1.2c0.4,0.5,0.6,1.1,0.6,1.7c0,1.1-0.5,2-1.4,2.8c-0.9,0.8-2.3,1.2-4.2,1.2c-1.8,0-3.2-0.4-4.2-1.3
				c-1-0.9-1.7-2.3-2.1-4.2L4.8,153C5.2,156.2,6.3,158.7,8.3,160.3z"/>
		</g>
	</g>
	<path class="st2" d="M148.7,173c0-1.1,0.4-1.6,1.1-1.6c0.7,0,1.1,0.5,1.1,1.6c0,1-0.4,1.6-1.1,1.6
		C149.2,174.6,148.7,174.1,148.7,173z M147.5,173c0,1.7,0.9,2.7,2.4,2.7c1.4,0,2.4-1,2.4-2.7c0-1.7-0.9-2.8-2.4-2.8
		C148.4,170.3,147.5,171.3,147.5,173z M142.7,175.6v-3.3c0.1-0.4,0.4-0.9,0.9-0.9c0.6,0,0.9,0.4,0.9,1.1v2c0,0.8,0.4,1.2,1.1,1.2
		c0.4,0,0.7-0.1,0.9-0.2l0-1c-0.1,0.1-0.3,0.2-0.4,0.2c-0.2,0-0.3-0.1-0.3-0.4v-1.9c0-1.3-0.5-2-1.6-2c-0.6,0-1.1,0.2-1.4,0.6v-0.5
		h-1.3v5.2H142.7z M138.1,171.9v2.2c-0.2,0.3-0.5,0.5-0.9,0.5c-0.7,0-1.2-0.6-1.2-1.6c0-1,0.4-1.6,1.2-1.6
		C137.6,171.4,138,171.7,138.1,171.9z M139.4,170.4h-1.3v0.4c-0.3-0.4-0.8-0.5-1.3-0.5c-1.4,0-2.1,1.1-2.1,2.7
		c0,1.7,0.8,2.7,2.1,2.7c0.6,0,1.1-0.2,1.4-0.6c0.1,0.5,0.5,0.6,1,0.6c0.4,0,0.8-0.1,1-0.2l-0.1-1c-0.1,0.1-0.3,0.2-0.4,0.2
		c-0.2,0-0.3-0.2-0.3-0.5V170.4z M127.2,175.6v-3.4c0.1-0.4,0.4-0.8,0.9-0.8c0.5,0,0.8,0.3,0.8,1.1v3.1h1.2v-3.3v-0.1
		c0.1-0.4,0.4-0.7,0.8-0.7c0.6,0,0.8,0.3,0.8,1.1v2c0,0.8,0.4,1.2,1.1,1.2c0.4,0,0.7-0.1,1-0.2l-0.1-1c-0.1,0.1-0.3,0.2-0.4,0.2
		c-0.2,0-0.3-0.1-0.3-0.4v-1.9c0-1.3-0.5-2-1.7-2c-0.7,0-1.2,0.3-1.5,0.8c-0.2-0.5-0.7-0.8-1.4-0.8c-0.6,0-1.1,0.2-1.4,0.6v-0.5
		h-1.3v5.2H127.2z M122.6,170.4v3.5c-0.2,0.4-0.5,0.7-1,0.7c-0.6,0-0.8-0.4-0.8-1v-3.1h-1.3v3.3c0,1.3,0.5,2,1.6,2
		c0.6,0,1.1-0.2,1.5-0.6c0.1,0.4,0.5,0.6,1,0.6c0.4,0,0.7-0.1,0.9-0.2l0-1c-0.1,0.1-0.3,0.2-0.4,0.2c-0.2,0-0.3-0.1-0.3-0.4v-3.8
		H122.6z M114.6,175.6v-3.3c0.1-0.4,0.4-0.9,0.9-0.9c0.6,0,0.9,0.4,0.9,1.1v2c0,0.8,0.4,1.2,1.1,1.2c0.4,0,0.7-0.1,0.9-0.2l0-1
		c-0.1,0.1-0.3,0.2-0.4,0.2c-0.2,0-0.3-0.1-0.3-0.4v-1.9c0-1.3-0.5-2-1.6-2c-0.6,0-1.1,0.2-1.4,0.6v-2.4h-1.3v7.1H114.6z M105.9,173
		c0-1.1,0.4-1.6,1.1-1.6c0.7,0,1.1,0.5,1.1,1.6c0,1-0.4,1.6-1.1,1.6C106.3,174.6,105.9,174.1,105.9,173z M104.6,173
		c0,1.7,0.9,2.7,2.4,2.7c1.4,0,2.4-1,2.4-2.7c0-1.7-0.9-2.8-2.4-2.8C105.6,170.3,104.6,171.3,104.6,173z M99.9,175.6v-3.3
		c0.1-0.4,0.4-0.9,0.9-0.9c0.6,0,0.9,0.4,0.9,1.1v2c0,0.8,0.4,1.2,1.1,1.2c0.4,0,0.7-0.1,0.9-0.2l0-1c-0.1,0.1-0.3,0.2-0.4,0.2
		c-0.2,0-0.3-0.1-0.3-0.4v-1.9c0-1.3-0.5-2-1.6-2c-0.6,0-1.1,0.2-1.4,0.6v-2.4h-1.3v7.1H99.9z M96.7,174.1c-0.3,0.3-0.8,0.6-1.3,0.6
		c-0.9,0-1.3-0.6-1.3-1.6c0-1,0.4-1.6,1.2-1.6c0.6,0,0.9,0.4,1,1l1-0.4c-0.2-1.1-0.8-1.8-2.1-1.8c-1.4,0-2.3,1.1-2.3,2.8
		c0,1.6,0.7,2.7,2.4,2.7c0.7,0,1.4-0.3,1.9-0.7L96.7,174.1z M88.6,172.4c0.1-0.6,0.4-1.1,1-1.1c0.5,0,0.8,0.3,0.8,0.8l0,0.3H88.6z
		 M91.5,173.4c0.1-0.3,0.1-0.7,0.1-1.1c0-1.2-0.6-2.1-2-2.1c-1.4,0-2.3,1.2-2.3,2.8c0,1.6,0.7,2.7,2.3,2.7c0.8,0,1.5-0.2,2-0.6
		l-0.5-0.9c-0.3,0.3-0.7,0.5-1.3,0.5c-0.9,0-1.2-0.5-1.3-1.3H91.5z M86.5,170.6c-0.2-0.1-0.5-0.2-0.8-0.2c-0.6,0-0.9,0.2-1.1,0.6
		c-0.1-0.5-0.5-0.7-0.9-0.7c-0.4,0-0.8,0.1-1,0.2l0,1c0.1-0.1,0.3-0.2,0.4-0.2c0.3,0,0.3,0.2,0.3,0.5v3.7h1.3v-3
		c0.1-0.6,0.3-1.1,0.9-1.1c0.3,0,0.6,0.1,0.8,0.3L86.5,170.6z M78.6,172.4c0.1-0.6,0.4-1.1,1-1.1c0.5,0,0.8,0.3,0.8,0.8l0,0.3H78.6z
		 M81.5,173.4c0.1-0.3,0.1-0.7,0.1-1.1c0-1.2-0.6-2.1-2-2.1c-1.4,0-2.3,1.2-2.3,2.8c0,1.6,0.7,2.7,2.3,2.7c0.8,0,1.5-0.2,2-0.6
		l-0.5-0.9c-0.3,0.3-0.7,0.5-1.3,0.5c-0.9,0-1.2-0.5-1.3-1.3H81.5z M72.2,173c0-1,0.4-1.6,1.2-1.6c0.4,0,0.7,0.2,0.9,0.5v2.3
		c-0.2,0.2-0.5,0.5-0.9,0.5C72.6,174.6,72.2,174,72.2,173z M74.3,168.5v2.3c-0.3-0.3-0.8-0.5-1.3-0.5c-1.2,0-2.1,1-2.1,2.7
		s0.8,2.7,2.1,2.7c0.6,0,1.1-0.3,1.4-0.6c0.1,0.4,0.5,0.6,0.9,0.6c0.4,0,0.8-0.1,1-0.2l-0.1-1c-0.1,0.1-0.3,0.2-0.4,0.2
		c-0.3,0-0.3-0.2-0.3-0.5v-5.6H74.3z M63.7,175.6v-3.3c0.1-0.4,0.4-0.9,0.9-0.9c0.6,0,0.9,0.4,0.9,1.1v2c0,0.8,0.4,1.2,1.1,1.2
		c0.4,0,0.7-0.1,0.9-0.2l0-1c-0.1,0.1-0.3,0.2-0.4,0.2c-0.2,0-0.3-0.1-0.3-0.4v-1.9c0-1.3-0.5-2-1.6-2c-0.6,0-1.1,0.2-1.4,0.6v-0.5
		h-1.3v5.2H63.7z M59.2,170.4v3.5c-0.2,0.4-0.5,0.7-1,0.7c-0.6,0-0.8-0.4-0.8-1v-3.1h-1.3v3.3c0,1.3,0.5,2,1.6,2
		c0.6,0,1.1-0.2,1.5-0.6c0.1,0.4,0.5,0.6,1,0.6c0.4,0,0.7-0.1,0.9-0.2l0-1c-0.1,0.1-0.3,0.2-0.4,0.2c-0.2,0-0.3-0.1-0.3-0.4v-3.8
		H59.2z M52.2,170.6c-0.4-0.2-1.1-0.3-1.7-0.3c-1.2,0-1.9,0.7-1.9,1.6c0,0.7,0.4,1.2,1.1,1.4l0.7,0.2c0.3,0.1,0.6,0.2,0.6,0.6
		c0,0.3-0.2,0.5-0.7,0.5c-0.5,0-1-0.3-1.4-0.4l-0.3,1.1c0.3,0.2,1,0.4,1.7,0.4c1.2,0,1.9-0.8,1.9-1.7c0-0.7-0.4-1.2-1.1-1.4
		l-0.7-0.2c-0.5-0.1-0.6-0.3-0.6-0.5c0-0.3,0.2-0.5,0.7-0.5c0.5,0,0.9,0.2,1.3,0.3L52.2,170.6z M44.4,172.4c0-0.6,0.4-1.1,1-1.1
		c0.5,0,0.8,0.3,0.8,0.8l0,0.3H44.4z M47.3,173.4c0.1-0.3,0.1-0.7,0.1-1.1c0-1.2-0.6-2.1-2-2.1c-1.4,0-2.3,1.2-2.3,2.8
		c0,1.6,0.7,2.7,2.3,2.7c0.8,0,1.5-0.2,2-0.6l-0.5-0.9c-0.3,0.3-0.7,0.5-1.3,0.5c-0.9,0-1.2-0.5-1.3-1.3H47.3z M37.7,171.9v2.2
		c-0.2,0.3-0.5,0.5-0.9,0.5c-0.7,0-1.2-0.6-1.2-1.6c0-1,0.4-1.6,1.2-1.6C37.1,171.4,37.5,171.7,37.7,171.9z M38.9,170.4h-1.3v0.4
		c-0.3-0.4-0.8-0.5-1.3-0.5c-1.4,0-2.1,1.1-2.1,2.7c0,1.7,0.8,2.7,2.1,2.7c0.6,0,1.1-0.2,1.4-0.6c0.1,0.5,0.5,0.6,1,0.6
		c0.4,0,0.8-0.1,1-0.2l-0.1-1c-0.1,0.1-0.3,0.2-0.4,0.2c-0.2,0-0.3-0.2-0.3-0.5V170.4z M31.3,170.4v3.5c-0.2,0.4-0.5,0.7-1,0.7
		c-0.6,0-0.8-0.4-0.8-1v-3.1h-1.3v3.3c0,1.3,0.5,2,1.6,2c0.6,0,1.1-0.2,1.5-0.6c0.1,0.4,0.5,0.6,1,0.6c0.4,0,0.7-0.1,0.9-0.2l0-1
		c-0.1,0.1-0.3,0.2-0.4,0.2c-0.2,0-0.3-0.1-0.3-0.4v-3.8H31.3z M23.1,172.8c0-0.9,0.4-1.4,1.2-1.4c0.4,0,0.7,0.3,0.9,0.5v1.8
		c-0.2,0.2-0.5,0.4-0.9,0.4C23.6,174.2,23.1,173.7,23.1,172.8z M21.8,172.8c0,1.5,0.8,2.5,2.1,2.5c0.5,0,1-0.2,1.3-0.5v0.6
		c0,0.9-0.5,1-1.2,1c-0.6,0-1.1-0.3-1.4-0.4l-0.3,1.1c0.3,0.2,0.9,0.4,1.8,0.4c1.3,0,2.3-0.7,2.3-2.3v-4.9h-1.3v0.4
		c-0.3-0.3-0.7-0.5-1.3-0.5C22.6,170.3,21.8,171.3,21.8,172.8z M18.8,171.9v2.2c-0.2,0.3-0.5,0.5-0.9,0.5c-0.7,0-1.2-0.6-1.2-1.6
		c0-1,0.4-1.6,1.2-1.6C18.3,171.4,18.6,171.7,18.8,171.9z M20,170.4h-1.3v0.4c-0.3-0.4-0.8-0.5-1.3-0.5c-1.4,0-2.1,1.1-2.1,2.7
		c0,1.7,0.8,2.7,2.1,2.7c0.6,0,1.1-0.2,1.4-0.6c0.1,0.5,0.5,0.6,1,0.6c0.4,0,0.8-0.1,1-0.2l-0.1-1c-0.1,0.1-0.3,0.2-0.4,0.2
		c-0.2,0-0.3-0.2-0.3-0.5V170.4z M9.9,168.5v5.9c0,0.9,0.4,1.2,1.1,1.2c0.4,0,0.8-0.1,1-0.2l0-1c-0.1,0.1-0.3,0.2-0.5,0.2
		c-0.2,0-0.4-0.1-0.4-0.5v-5.6H9.9z M8.4,175.6v-1.1H5v-1.8h2.8v-1.1H5V170h3.4v-1.1H3.8v6.8H8.4z"/>
</g>
<g>
	<path class="st1" d="M91.3,49.5c9.7,24.2,22.8,31.1,22,47c-0.1,2.1-0.5,9.3-5.5,15.5c-7.5,9.3-19.5,9.5-21.6,9.5
		c-2.1,0-14.1-0.2-21.5-9.5c-5-6.2-5.4-13.4-5.5-15.5c-0.8-15.9,12.3-22.8,22-47c2.7-6.7,4.2-12.4,5-16
		C86.2,33.5,88.6,42.8,91.3,49.5z"/>
	<path class="st1" d="M82.6,29.1c-1.4-2.8-2.8-5.9-4.2-9.3C75.4,12.3,72.8,2,72.8,2c-0.9,4-2.6,10.3-5.6,17.8
		c-10.8,27-25.4,34.7-24.5,52.3c0.1,2.4,0.5,10.3,6.1,17.2c1,1.3,2.1,2.4,3.3,3.4c2.1-8.6,4.9-15.1,7-19.3c6.8-13.5,14-18.8,20-34
		C80.9,35.1,82,31.4,82.6,29.1z"/>
	<g>
		<polygon class="st3" points="44.9,61.8 46.4,63.7 45,65.7 47.3,64.9 48.8,66.8 48.7,64.4 50.9,63.6 48.7,62.9 48.6,60.5 
			47.2,62.5 		"/>
		<polygon class="st3" points="55.4,68.1 53.1,67.4 54.6,69.3 53.2,71.2 55.5,70.4 56.9,72.3 56.9,69.9 59.1,69.1 56.8,68.5 
			56.7,66.1 		"/>
		<polygon class="st3" points="60.6,51.7 58.3,51 59.8,52.9 58.4,54.9 60.7,54.1 62.1,56 62.1,53.6 64.3,52.8 62,52.1 61.9,49.7 		
			"/>
		<polygon class="st3" points="65.9,37.7 67.3,39.6 67.3,37.2 69.5,36.4 67.2,35.7 67.2,33.3 65.8,35.3 63.5,34.6 65,36.5 
			63.6,38.5 		"/>
		<polygon class="st3" points="74,40.9 71.7,40.2 73.1,42.1 71.8,44.1 74,43.2 75.5,45.1 75.4,42.7 77.7,41.9 75.4,41.3 75.3,38.9 
					"/>
	</g>
</g>
<g>
	<g class="st0">
		<path d="M105.8,133.7h-6.1l-11.2,28.6h6.1l2.4-6.5h11.4l2.5,6.5h6.3L105.8,133.7z M98.8,151l3.9-10.6l3.9,10.6H98.8z"/>
	</g>
	<g>
		<path class="st1" d="M107.8,133.7h-6.1l-11.2,28.6h6.1l2.4-6.5h11.4l2.5,6.5h6.3L107.8,133.7z M100.8,151l3.9-10.6l3.9,10.6H100.8
			z"/>
	</g>
</g>
</svg>
