<?xml version="1.0" standalone="no"?>
<!DOCTYPE svg PUBLIC "-//W3C//DTD SVG 20010904//EN"
 "http://www.w3.org/TR/2001/REC-SVG-20010904/DTD/svg10.dtd">
<svg version="1.0" xmlns="http://www.w3.org/2000/svg"
 width="800.000000pt" height="800.000000pt" viewBox="0 0 800.000000 800.000000"
 preserveAspectRatio="xMidYMid meet">

<g transform="translate(0.000000,800.000000) scale(0.100000,-0.100000)"
fill="#000000" stroke="none">
<path d="M3810 7924 c-578 -34 -1104 -175 -1603 -432 -379 -194 -679 -413
-982 -717 -320 -320 -539 -625 -740 -1030 -118 -239 -194 -432 -258 -655 -274
-956 -181 -1964 263 -2850 553 -1104 1595 -1886 2805 -2104 262 -48 409 -60
705 -60 297 0 460 14 710 60 1603 296 2858 1551 3154 3154 46 250 60 413 60
710 0 297 -14 460 -60 710 -224 1213 -1001 2248 -2104 2800 -431 216 -870 345
-1345 395 -142 15 -487 26 -605 19z m415 -384 c872 -57 1680 -423 2295 -1040
111 -111 270 -293 270 -309 0 -8 -338 -11 -1265 -11 l-1265 0 0 -1770 0 -1770
525 0 525 0 2 688 3 687 478 3 477 2 0 235 0 235 -480 0 -480 0 0 610 0 610
900 0 899 0 36 -64 c88 -159 205 -451 270 -678 43 -149 89 -374 111 -553 22
-172 25 -622 6 -790 -52 -445 -165 -831 -353 -1207 l-69 -138 -2276 0 c-1817
0 -2275 3 -2271 13 81 196 1567 3879 1567 3882 0 3 -657 5 -1460 5 -953 0
-1460 3 -1460 10 0 27 252 302 397 432 732 656 1657 980 2618 918z m-1428
-1847 c-2 -10 -354 -882 -782 -1938 -427 -1056 -779 -1926 -782 -1932 -4 -10
555 -13 2776 -13 1530 0 2781 -3 2781 -6 0 -23 -259 -303 -394 -426 -500 -456
-1125 -762 -1791 -878 -850 -147 -1744 26 -2476 480 -901 558 -1507 1489
-1653 2536 -98 706 29 1457 356 2097 l50 97 960 0 c910 0 960 -1 955 -17z"/>
</g>
</svg>
