<?xml version="1.0" standalone="no"?>
<!DOCTYPE svg PUBLIC "-//W3C//DTD SVG 20010904//EN"
 "http://www.w3.org/TR/2001/REC-SVG-20010904/DTD/svg10.dtd">
<svg version="1.0" xmlns="http://www.w3.org/2000/svg"
 width="4698.000000pt" height="1153.000000pt" viewBox="0 0 4698.000000 1153.000000"
 preserveAspectRatio="xMidYMid meet">

<g transform="translate(0.000000,1153.000000) scale(0.100000,-0.100000)"
fill="#000000" stroke="none">
<path d="M119 11500 c-49 -26 -97 -82 -104 -122 -3 -18 -4 -2558 -3 -5645 l3
-5611 31 -39 c16 -21 50 -48 74 -60 l44 -23 754 0 c721 0 754 1 790 19 48 25
87 66 106 113 14 33 16 298 17 2505 1 1667 4 2457 11 2433 5 -19 191 -649 413
-1400 222 -751 548 -1855 725 -2455 210 -712 330 -1103 346 -1127 14 -23 44
-48 74 -63 l49 -25 777 0 776 0 49 26 c26 15 61 45 76 67 l28 40 3 5617 2
5617 -23 44 c-13 24 -43 58 -66 74 l-43 30 -769 3 c-696 2 -772 1 -802 -14
-42 -21 -75 -52 -95 -89 -16 -28 -17 -227 -22 -2516 l-5 -2486 -284 961 c-156
529 -479 1623 -718 2431 -239 809 -443 1500 -454 1538 -22 76 -62 128 -120
158 -37 18 -65 19 -821 19 -750 -1 -785 -2 -819 -20z"/>
<path d="M11160 11499 c-161 -24 -239 -41 -379 -85 -517 -161 -962 -500 -1264
-964 -167 -258 -285 -565 -339 -885 l-23 -140 0 -3665 c0 -3495 1 -3670 18
-3775 88 -532 314 -968 688 -1330 353 -341 789 -555 1284 -631 165 -26 484
-26 645 -1 505 78 934 288 1286 630 145 140 222 232 330 393 203 305 337 681
374 1049 8 78 10 1159 8 3740 l-4 3630 -22 115 c-52 266 -124 478 -233 688
-403 774 -1203 1256 -2072 1251 -111 -1 -216 -8 -297 -20z m460 -1829 c171
-50 310 -208 339 -387 9 -50 11 -999 9 -3563 l-3 -3495 -23 -59 c-33 -89 -64
-135 -129 -197 -99 -95 -208 -139 -344 -139 -219 0 -418 149 -475 357 -18 66
-19 181 -19 3578 l0 3510 22 70 c27 85 64 144 128 208 132 129 308 171 495
117z"/>
<path d="M17892 11498 c-47 -23 -83 -64 -101 -117 -8 -25 -11 -1471 -11 -5623
0 -5030 2 -5592 16 -5626 19 -47 58 -88 107 -113 37 -19 66 -20 1230 -16 1077
2 1202 4 1297 20 513 85 938 296 1289 640 360 352 581 773 674 1282 21 118 21
136 25 1325 2 830 0 1239 -8 1315 -37 367 -173 745 -379 1053 l-82 122 81 123
c206 308 344 688 380 1052 8 76 10 485 8 1320 -4 1333 0 1248 -68 1516 -191
755 -759 1370 -1500 1624 -158 54 -272 80 -452 105 -135 19 -199 20 -1302 20
-1156 -1 -1161 -1 -1204 -22z m2359 -1826 c171 -56 298 -197 335 -371 21 -101
20 -2148 -1 -2239 -47 -198 -208 -350 -405 -382 -36 -5 -181 -10 -322 -10
l-258 0 0 1516 0 1516 293 -4 c266 -4 298 -7 358 -26z m13 -4850 c147 -54 252
-160 308 -308 l23 -59 3 -1075 c2 -749 0 -1095 -8 -1140 -29 -172 -152 -321
-318 -383 -53 -21 -78 -22 -364 -25 l-308 -3 0 1511 0 1512 303 -4 c280 -4
306 -6 361 -26z"/>
<path d="M26513 11490 c-40 -23 -57 -40 -77 -83 l-26 -53 3 -4674 c2 -4453 3
-4680 20 -4779 10 -58 33 -164 51 -235 162 -637 590 -1179 1176 -1485 161 -84
412 -181 468 -181 34 0 82 37 98 76 22 52 21 11227 -1 11300 -15 53 -57 100
-112 128 -29 14 -113 16 -790 16 l-758 0 -52 -30z"/>
<path d="M29339 11497 c-24 -13 -57 -43 -74 -66 l-30 -43 -3 -5649 c-2 -5038
0 -5653 13 -5679 16 -31 61 -60 93 -60 29 0 239 74 341 120 586 264 1041 761
1247 1363 40 115 68 222 97 367 l21 105 3 4708 c3 4332 2 4710 -13 4740 -23
45 -53 76 -96 98 -36 18 -70 19 -796 19 l-759 0 -44 -23z"/>
<path d="M35145 11491 c-33 -19 -58 -43 -75 -72 l-25 -44 -3 -5594 c-1 -3868
1 -5606 8 -5632 13 -49 61 -104 111 -130 37 -19 77 -19 1932 -19 2040 0 1922
-3 1990 50 15 12 36 39 47 61 19 37 20 62 20 807 l0 768 -29 47 c-19 28 -46
55 -73 69 l-43 23 -1070 3 -1070 2 3 4752 c1 3277 -1 4763 -8 4789 -13 49 -61
104 -111 130 -37 18 -66 19 -796 19 l-758 0 -50 -29z"/>
<path d="M42993 11504 c-45 -19 -98 -77 -111 -123 -9 -29 -12 -1409 -12 -5625
0 -5028 2 -5590 16 -5624 19 -47 58 -88 106 -113 36 -19 87 -19 1935 -19
l1898 1 45 23 c26 13 58 41 75 65 l30 43 3 772 2 772 -23 45 c-16 29 -40 54
-72 74 l-48 30 -1074 3 -1073 2 0 4770 c0 3345 -3 4777 -11 4797 -14 38 -56
81 -101 104 -36 18 -68 19 -795 18 -624 0 -764 -3 -790 -15z"/>
</g>
</svg>
