<svg width="1200" height="348" viewBox="0 0 1200 348" fill="none" xmlns="http://www.w3.org/2000/svg">
<g clip-path="url(#clip0_373_3127)">
<path d="M1119.32 96.6877C1138.9 83.2679 1147.48 70.4881 1147.1 53.8084C1144.12 26.1489 1122.5 0.329303 1086.5 13.3691C1073 18.569 1061.94 27.8088 1054.24 42.0486C1048.12 18.229 1038.82 6.16919 1021.24 1.94926C994.003 -4.95062 952.224 5.62922 959.044 47.1885C961.744 60.0683 967.164 65.4882 974.544 74.668L983.044 84.2879C986.224 87.6078 989.604 90.7878 993.083 93.7877L978.424 100.368H978.344L951.224 112.487H951.364L910.425 130.847L910.345 163.387L927.285 165.047L933.365 213.726C927.225 223.066 919.805 228.985 919.805 228.985C915.845 232.625 911.085 236.405 905.485 240.405C899.885 244.425 893.925 248.045 887.605 251.465C881.325 254.805 874.886 257.545 868.286 259.745C861.646 261.985 855.366 262.985 849.466 262.805C847.566 262.825 845.826 262.545 844.186 262.105C842.566 261.685 841.006 261.045 839.546 260.025C838.086 258.965 836.646 257.625 835.266 255.785C833.866 254.045 832.466 251.865 831.006 249.185C839.646 247.065 847.726 243.965 855.186 239.945C862.646 235.905 869.106 231.325 874.526 226.066C880.065 220.846 884.845 214.546 889.005 207.146C893.165 199.786 895.285 193.106 895.445 187.046C895.545 181.406 894.685 176.286 892.805 171.706C890.965 167.067 888.265 163.147 884.865 159.827C881.405 156.527 877.326 153.947 872.646 152.067C867.946 150.147 862.826 149.187 857.266 149.047C850.486 148.887 844.306 149.987 838.726 152.187C833.126 154.487 828.066 157.627 823.486 161.647C818.946 165.587 814.946 170.206 811.467 175.506C808.047 180.746 805.127 186.326 802.787 192.126C800.467 197.926 798.187 204.666 795.967 212.186C793.707 219.766 792.567 226.226 792.447 231.785C792.427 232.945 792.487 234.085 792.507 235.225C789.867 237.445 786.987 239.705 783.787 242.085C778.287 246.105 772.447 249.825 766.287 253.205C760.147 256.645 753.808 259.425 747.328 261.585C740.848 263.825 734.748 264.825 728.928 264.745C727.068 264.685 725.368 264.485 723.788 264.065C722.208 263.605 720.688 262.905 719.268 261.905C717.828 260.885 716.388 259.485 715.048 257.665C713.688 255.945 712.328 253.645 710.928 250.965C719.368 248.845 727.228 245.745 734.568 241.705C741.868 237.665 748.168 232.965 753.528 227.705C758.847 222.486 763.587 216.106 767.687 208.646C771.747 201.206 773.847 194.446 773.987 188.386C774.107 182.726 773.267 177.546 771.427 172.866C769.547 168.246 766.987 164.287 763.627 160.927C760.247 157.607 756.247 155.087 751.648 153.147C747.048 151.227 742.068 150.227 736.608 150.127C729.988 149.947 723.948 151.027 718.448 153.387C712.988 155.667 708.008 158.807 703.528 162.807C699.088 166.847 695.148 171.446 691.769 176.726C688.369 182.086 685.569 187.666 683.269 193.546C680.969 199.446 678.729 206.166 676.569 213.746C674.329 221.326 673.209 227.945 673.149 233.465C673.049 237.145 673.209 240.725 673.549 244.245C673.109 244.425 672.649 244.525 672.209 244.745C669.849 245.985 667.469 247.505 665.029 249.385C662.569 251.205 660.029 253.265 657.429 255.345C654.769 257.445 651.989 259.445 648.909 261.305C645.909 263.145 642.609 264.665 639.049 265.845C635.59 267.025 631.69 267.645 627.39 267.505C625.45 267.465 623.23 267.045 620.65 266.285C618.09 265.505 615.65 264.745 613.29 263.865C610.99 262.885 608.97 262.005 607.27 261.345C604.01 259.905 605.35 257.225 605.35 257.225C606.35 256.025 608.17 253.745 610.95 250.425C613.71 247.125 616.95 243.145 620.65 238.625C624.37 234.165 628.51 228.765 633.15 222.626C637.829 216.446 642.089 210.886 645.909 206.046C649.709 201.226 653.129 196.766 656.009 192.726C658.949 188.766 661.029 185.686 662.289 183.486C666.589 182.466 669.669 181.346 671.549 180.106C673.389 178.886 674.389 177.906 674.669 177.046C675.309 174.666 675.669 171.706 675.749 168.246C675.869 164.027 675.129 160.607 673.609 158.087C672.069 155.567 669.489 154.787 666.009 154.207C662.549 153.647 656.549 155.287 656.549 155.287C644.809 159.067 635.03 156.007 628.71 153.247C626.37 152.147 615.29 148.507 611.15 147.867C590.57 144.907 581.53 154.147 581.53 154.147C579.89 155.587 578.73 156.887 575.751 162.247C572.771 167.567 570.471 174.566 568.731 183.226C568.531 184.386 568.331 185.566 568.231 186.686C568.071 187.826 568.051 188.886 568.011 189.886C567.951 192.286 568.211 194.246 568.831 195.686C569.471 197.166 570.571 197.926 572.191 197.966C573.951 197.986 575.911 196.926 578.071 194.786C580.25 192.666 582.97 189.266 586.23 184.726C587.71 182.606 589.03 180.926 590.21 179.826C591.41 178.666 595.07 176.286 596.55 175.706C596.55 175.706 612.15 170.366 622.83 182.626L573.731 246.405C572.471 245.845 571.151 245.465 569.651 245.485C567.111 245.405 564.651 245.925 562.311 247.145C559.911 248.385 557.551 249.985 555.131 251.785C552.731 253.665 550.131 255.685 547.511 257.765C544.871 259.885 542.051 261.905 538.991 263.725C535.951 265.565 532.711 267.125 529.171 268.285C525.671 269.465 521.731 270.025 517.471 270.005C515.532 269.945 513.312 269.505 510.732 268.705C508.172 267.945 505.732 267.165 503.412 266.225C501.112 265.325 499.112 264.425 497.392 263.745C494.132 262.365 495.492 259.605 495.492 259.605C496.412 258.425 498.292 256.145 501.032 252.825C503.832 249.505 507.032 245.585 510.772 241.025C514.452 236.545 518.651 231.165 523.291 225.046C527.931 218.826 532.171 213.346 535.971 208.446C539.791 203.586 543.151 199.146 546.091 195.186C549.011 191.226 551.151 188.126 552.391 185.906C556.671 184.906 559.751 183.746 561.611 182.526C563.471 181.266 564.471 180.286 564.711 179.506C565.371 177.026 565.711 174.126 565.791 170.706C565.911 166.447 565.191 163.007 563.691 160.487C562.151 157.967 559.611 157.167 556.071 156.567C552.651 156.007 546.591 157.667 546.591 157.667C534.911 161.427 525.111 158.427 518.771 155.647C516.431 154.567 505.392 150.887 501.232 150.287C480.652 147.287 471.632 156.527 471.632 156.527C469.972 157.947 468.852 159.327 465.872 164.667C462.932 169.986 460.572 176.906 458.852 185.606C458.632 186.786 458.452 187.946 458.332 189.106C458.192 190.246 458.112 191.246 458.092 192.326C458.052 194.686 458.332 196.666 458.952 198.086C459.592 199.566 460.692 200.366 462.312 200.346C464.052 200.366 465.992 199.346 468.192 197.186C470.392 195.046 473.092 191.666 476.372 187.086C477.812 184.986 479.152 183.366 480.352 182.166C481.552 181.106 485.172 178.666 486.712 178.086C486.712 178.086 502.272 172.766 512.972 185.046L474.372 235.185C464.372 232.065 456.553 236.745 452.413 239.725C446.773 243.765 440.773 247.445 434.453 250.845C428.193 254.205 421.653 257.005 415.033 259.205C408.413 261.405 402.113 262.425 396.174 262.345C394.274 262.285 392.534 262.065 390.874 261.645C389.254 261.225 387.694 260.485 386.214 259.465C384.774 258.465 383.294 257.085 381.914 255.305C380.514 253.525 379.034 251.305 377.654 248.565C386.334 246.425 394.414 243.345 401.933 239.265C409.413 235.225 415.913 230.545 421.373 225.346C426.833 220.086 431.693 213.746 435.853 206.266C440.053 198.866 442.213 192.106 442.353 186.066C442.473 180.386 441.613 175.166 439.693 170.586C437.833 165.947 435.153 161.907 431.693 158.587C428.273 155.287 424.153 152.687 419.433 150.807C414.733 148.907 409.573 147.867 404.073 147.747C397.234 147.627 391.054 148.687 385.434 150.967C379.814 153.287 374.694 156.407 370.154 160.427C365.574 164.427 361.574 169.066 358.074 174.406C354.614 179.666 351.734 185.286 349.374 191.166C347.034 196.966 344.734 203.746 342.494 211.406C340.854 217.046 339.774 222.106 339.274 226.605C326.515 231.185 314.155 226.626 313.055 226.166C311.275 225.466 310.315 224.466 309.235 223.066C308.135 221.526 307.235 219.626 306.595 217.206C305.935 214.786 305.675 211.806 305.755 208.186C305.775 206.086 306.095 203.486 306.635 200.366C307.195 197.226 308.095 193.226 309.315 188.326C310.535 183.466 311.415 179.526 311.915 176.486C312.495 173.466 312.815 171.126 312.855 169.446C312.915 167.227 312.495 165.207 311.775 163.447C311.015 161.727 309.955 160.207 308.695 158.987C307.355 157.787 305.835 156.787 304.075 156.127C302.295 155.427 300.455 155.047 298.595 155.027C293.115 154.847 288.255 156.267 284.035 159.127C279.835 161.987 275.996 165.507 272.676 169.706C269.316 173.906 266.016 179.266 262.936 185.686C259.816 192.106 257.236 197.286 255.156 201.226L253.516 201.186C253.456 196.066 253.716 190.126 254.356 183.366C254.976 176.646 255.356 171.346 255.416 167.687C255.456 164.627 255.476 162.147 255.376 160.347C255.256 158.547 254.876 157.187 254.176 156.187C253.516 155.247 252.456 154.587 251.016 154.347C249.576 154.047 247.576 153.867 245.036 153.807C242.736 153.747 240.836 153.807 239.276 154.067C237.736 154.287 236.416 154.767 235.356 155.467C234.316 156.207 233.396 157.187 232.536 158.507C231.716 159.767 230.896 161.527 230.036 163.667C228.716 166.926 227.316 171.046 225.916 176.186C224.496 181.226 222.836 187.486 220.896 195.146C218.937 202.726 217.317 209.866 216.037 216.626C214.737 223.286 213.597 229.905 212.617 236.325C211.637 242.825 210.837 248.945 210.217 254.785C209.577 260.665 209.257 265.705 209.137 270.125C209.077 274.105 209.197 277.985 209.557 281.745C209.917 285.465 210.737 288.844 211.997 291.804C213.237 294.844 215.157 297.184 217.597 298.944C220.056 300.784 223.276 301.744 227.356 301.804C229.156 301.824 230.776 301.584 232.296 300.924C233.776 300.304 235.216 299.224 236.516 297.704C237.836 296.104 239.136 294.004 240.476 291.504C241.736 288.984 243.116 285.825 244.596 281.985L272.876 207.846L275.236 207.926C275.876 214.206 276.796 220.466 277.936 226.665C279.096 232.765 280.955 238.345 283.555 243.325C286.075 248.365 289.955 252.025 294.135 255.565C299.115 259.885 319.175 270.425 342.574 257.445C344.714 264.265 347.774 270.425 351.834 275.845C356.334 281.765 361.974 286.565 368.874 290.144C375.694 293.764 383.774 295.664 393.034 295.844C398.993 295.964 404.893 295.444 410.713 294.124C416.513 292.884 422.153 291.164 427.633 289.004C433.053 286.784 438.293 284.205 443.233 281.385C445.413 280.125 447.493 278.865 449.533 277.585C450.153 279.125 450.933 280.585 451.973 281.965C453.413 283.665 455.253 285.065 457.433 286.125C457.433 286.125 504.772 311.924 550.871 288.624L555.871 286.125C558.811 284.665 561.471 283.125 563.991 281.545C564.991 282.385 566.091 283.125 567.331 283.705C567.331 283.705 614.63 309.484 660.769 286.265L665.769 283.765C670.829 281.225 675.249 278.565 679.069 275.725C680.229 274.845 681.309 273.965 682.349 273.065C683.409 274.885 684.529 276.645 685.769 278.345C690.149 284.265 695.689 289.004 702.368 292.664C709.048 296.264 716.908 298.164 725.928 298.324C731.728 298.524 737.488 297.904 743.148 296.644C748.828 295.344 754.348 293.624 759.667 291.364C764.967 289.244 770.047 286.685 774.907 283.825C779.727 280.905 784.267 277.985 788.487 274.985C792.207 272.305 795.807 269.405 799.367 266.425C801.067 269.965 803.047 273.265 805.367 276.305C809.867 282.185 815.486 286.925 822.306 290.524C829.226 294.104 837.206 295.984 846.366 296.224C852.346 296.324 858.226 295.764 864.026 294.484C869.846 293.224 875.466 291.504 880.865 289.404C886.285 287.185 891.505 284.665 896.405 281.805C901.385 278.965 905.985 276.025 910.345 273.085C920.005 266.285 929.225 258.425 937.904 249.605L940.544 270.725L946.884 321.584L1110.64 347.803L1177.7 303.744L1189.9 143.307C1193.16 141.427 1196.44 139.527 1199.76 137.587L1200 101.628L1119.32 96.6877ZM375.174 216.086C375.434 213.086 376.434 209.166 378.174 204.626C379.914 199.946 381.434 196.046 382.754 192.906C384.094 189.726 385.754 186.966 387.874 184.486C389.974 182.066 392.534 180.086 395.634 178.586C398.674 177.086 402.333 176.406 406.633 176.446C409.013 176.546 410.973 177.986 412.553 180.866C414.193 183.726 414.913 187.386 414.833 191.746C414.773 194.886 412.893 198.806 409.353 203.486C405.753 208.226 402.113 211.986 398.393 214.686C394.734 217.486 390.734 219.726 386.494 221.426C382.234 223.126 378.274 223.906 374.734 223.786C374.734 221.706 374.894 219.146 375.174 216.086ZM708.528 218.646C708.788 215.566 709.748 207.526 711.488 202.906C711.488 202.906 715.488 188.926 725.508 182.546L728.508 181.026C731.488 179.546 735.088 178.846 739.248 178.886C741.548 178.986 743.508 180.466 745.048 183.306C746.608 186.166 747.308 189.766 747.188 194.206C747.148 197.326 745.348 201.266 741.848 205.986C738.328 210.686 734.788 214.446 731.248 217.166C727.588 219.946 723.748 222.186 719.548 223.946C715.408 225.586 711.568 226.465 708.068 226.346C708.128 224.226 708.228 221.606 708.528 218.646ZM828.606 217.046C828.886 214.026 829.846 206.046 831.566 201.466C831.566 201.466 835.666 187.626 845.906 181.266L848.986 179.826C852.026 178.326 855.666 177.606 859.946 177.686C862.306 177.766 864.266 179.226 865.886 182.046C867.486 184.886 868.186 188.506 868.106 192.866C868.026 195.966 866.186 199.886 862.666 204.566C859.066 209.246 855.426 212.926 851.766 215.626C848.086 218.386 844.126 220.606 839.886 222.326C835.646 224.046 831.686 224.906 828.186 224.786C828.226 222.586 828.346 220.046 828.606 217.046ZM1058.32 61.1483C1070.12 42.5886 1087.22 29.2088 1100.16 27.6488C1123.76 24.2289 1146.1 48.7685 1136.28 73.2881C1133.52 80.6079 1123.68 89.0078 1111.5 96.2077L1057.94 93.0077C1059.6 83.6679 1059.68 72.4881 1058.32 61.1483ZM1080.42 108.907L1100.32 97.6677L1108.16 98.1077C1100.16 102.548 1091.36 106.408 1083.02 109.127L1080.42 108.907ZM1057.52 95.1877L1072.04 96.0277L1054.64 104.588C1055.84 101.808 1056.8 98.6277 1057.52 95.1877ZM1057.6 121.807L1144.26 129.427L1116.3 146.247L1028.84 138.047L1057.6 121.807ZM1016.76 103.568C1012.18 100.388 1007.78 96.4477 1003.72 92.0478L1040.34 94.1677C1040.36 98.4276 1040.78 102.308 1041.6 105.648L1016.76 103.568ZM1046.12 94.5077L1052.18 94.8477C1051.28 99.4076 1049.92 103.288 1048.08 106.188L1047.46 106.148C1047.42 106.068 1047.4 105.968 1047.36 105.888C1046.3 102.328 1045.92 98.4876 1046.12 94.5077ZM1052.58 92.6878L1046.3 92.3278C1047.04 85.0279 1049.62 77.328 1053.38 69.8481C1053.9 78.028 1053.66 85.9679 1052.58 92.6878ZM992.923 78.108C992.363 77.728 986.204 68.1281 986.204 68.1281C985.564 67.2482 977.544 52.3684 977.824 41.8886C977.424 17.589 1013.66 3.38925 1032.72 17.909C1039.16 22.8089 1047.52 35.2287 1050.56 49.4685C1044.16 63.7682 1040.66 79.328 1040.36 91.9678L1001.78 89.8678C998.583 86.1679 995.583 82.2079 992.923 78.108ZM995.303 95.6477C998.223 98.0877 1001.2 100.388 1004.2 102.508L983.724 100.788L995.303 95.6477ZM915.925 130.887L956.404 112.907L1025.4 118.967L991.444 135.667L915.925 130.887ZM950.324 317.744L944.044 266.865L941.464 245.945C950.544 236.905 958.804 227.365 958.804 227.365L939.184 227.485L931.525 165.407C951.744 167.407 972.004 169.466 992.264 171.526L1009.4 327.684L950.324 317.744ZM1107.68 343.764L1037.32 331.864L1022.64 174.666C1022.64 174.666 1080.54 180.626 1112.66 183.786L1107.68 343.764ZM1141.48 323.924L1112.74 342.564L1118.32 183.826C1129.2 177.446 1139.76 171.466 1150.24 165.567L1141.48 323.924ZM1175.2 302.424L1158.42 312.784L1169.38 154.867C1169.38 154.867 1176.38 150.907 1186.38 145.167L1175.2 302.424ZM1169.34 116.407L1110.62 111.327L1094.34 110.107C1098.3 108.547 1102.48 106.308 1106.42 104.428C1110.08 102.288 1113.3 100.708 1116.44 98.6477L1194.84 103.208L1169.34 116.407Z" fill="#ED0B09"/>
<path d="M229.196 119.107C229.156 108.787 227.056 98.6876 222.836 89.0478C218.617 79.368 212.357 70.7081 204.017 63.2682C195.657 55.7484 185.197 49.7884 172.617 45.2885C160.058 40.7486 145.418 38.5286 128.738 38.5086C116.058 38.5286 104.138 40.6286 92.9186 44.6886C81.6588 48.8285 71.279 54.6484 61.7592 62.2483C52.1993 69.7281 43.6395 78.768 36.0196 89.2878C28.4197 99.8276 21.9198 111.467 16.5999 124.147C11.22 136.927 7.14009 150.607 4.24014 165.167C1.42019 179.726 -0.0197942 194.846 0.000205501 210.566C0.000205501 219.666 0.460203 229.385 1.38019 239.665C2.36017 250.025 3.88014 260.225 5.9201 270.385C8.00007 280.585 10.66 290.304 13.96 299.624C17.2799 308.964 21.3598 317.164 26.1398 324.344C30.9197 331.484 36.4796 337.164 42.8595 341.404C49.2394 345.523 56.4593 347.703 64.5391 347.683C72.179 347.683 79.2189 346.223 85.6588 343.443C92.1387 340.584 97.9386 336.824 103.138 332.004C108.338 327.204 112.918 321.584 116.798 315.184C120.758 308.864 124.038 302.104 126.778 294.964C129.518 287.864 131.578 280.545 133.038 273.045C134.458 265.565 135.278 258.345 135.498 251.365C135.498 250.805 135.478 249.725 135.538 248.085C135.578 246.565 135.638 244.685 135.698 242.525C135.758 240.385 135.838 238.045 135.938 235.405C136.038 232.845 136.098 230.285 136.238 227.685C136.438 221.666 136.658 214.966 136.958 207.686C152.538 205.346 166.157 201.106 177.737 195.306C189.317 189.446 198.877 182.546 206.477 174.466C214.057 166.426 219.737 157.647 223.536 148.087C227.276 138.507 229.216 128.867 229.196 119.107ZM190.297 139.367C188.097 144.807 184.677 149.707 180.137 154.287C175.517 158.827 169.757 162.707 162.757 166.046C155.758 169.386 147.458 171.786 137.798 173.326L139.098 161.387L148.118 122.607C148.118 122.207 148.118 121.867 148.158 121.667C148.198 121.367 148.258 120.887 148.258 120.247C148.258 117.687 147.758 115.667 146.698 114.087C145.678 112.447 144.398 111.207 142.858 110.287C141.338 109.287 139.638 108.687 137.738 108.307C135.858 107.967 134.038 107.847 132.258 107.807C126.358 107.847 121.498 109.327 117.498 112.247C113.538 115.227 110.258 118.967 107.778 123.507C105.298 128.007 103.438 132.987 102.078 138.367C100.839 143.767 99.8985 148.967 99.3386 153.987C98.7986 158.907 98.4786 163.327 98.4786 167.206C98.4386 169.746 98.3986 171.746 98.3786 173.206C93.8987 173.026 85.1388 172.066 76.1789 168.366L85.0588 187.086L68.8591 202.806C68.8591 202.806 85.0388 205.726 100.019 206.726L99.8385 216.486C99.8785 221.126 99.7785 226.645 99.5185 233.145C99.3785 239.665 98.9185 246.505 98.1986 253.625C97.5586 260.805 96.5386 267.925 95.1186 275.045C93.7186 282.105 91.8987 288.524 89.5187 294.164C87.1387 299.764 84.1788 304.284 80.6189 307.884C77.0189 311.404 72.759 313.124 67.7191 313.144C62.8992 313.184 58.8792 311.104 55.6593 307.004C52.4393 302.884 49.7794 297.544 47.6594 291.044C45.5195 284.525 43.9395 277.245 42.8395 269.205C41.7395 261.205 40.9795 253.245 40.4595 245.365C39.9595 237.525 39.6996 230.105 39.6796 223.226C39.5996 216.386 39.6195 210.826 39.5995 206.786C39.5795 196.846 40.2995 186.566 41.7195 176.086C43.1595 165.567 45.3794 155.407 48.4194 145.487C51.4393 135.587 55.2593 126.227 59.9192 117.487C64.5591 108.747 70.0391 101.048 76.3789 94.5277C82.6988 87.9478 89.9387 82.7079 98.0186 78.908C106.138 75.068 115.218 73.108 125.218 73.128C138.518 73.148 149.518 74.688 158.338 77.768C167.097 80.8479 174.157 84.7679 179.377 89.5678C184.577 94.3677 188.277 99.7076 190.377 105.508C192.517 111.367 193.577 117.047 193.577 122.627C193.657 128.347 192.537 133.947 190.297 139.367Z" fill="#ED0B09"/>
</g>
<defs>
<clipPath id="clip0_373_3127">
<rect width="1200" height="347.511" fill="white"/>
</clipPath>
</defs>
</svg>
