<?xml version="1.0" standalone="no"?>
<!DOCTYPE svg PUBLIC "-//W3C//DTD SVG 20010904//EN"
 "http://www.w3.org/TR/2001/REC-SVG-20010904/DTD/svg10.dtd">
<svg version="1.0" xmlns="http://www.w3.org/2000/svg"
 width="1195.000000pt" height="580.000000pt" viewBox="0 0 1195.000000 580.000000"
 preserveAspectRatio="xMidYMid meet">

<g transform="translate(0.000000,580.000000) scale(0.100000,-0.100000)"
fill="#000000" stroke="none">
<path d="M3005 5190 c-33 -4 -94 -8 -135 -9 -107 -1 -324 -28 -470 -57 -1026
-205 -1693 -894 -1845 -1907 -39 -258 -39 -627 0 -892 84 -569 357 -1077 760
-1413 329 -275 727 -437 1250 -508 188 -26 633 -26 800 0 175 27 395 73 411
87 11 9 14 63 14 285 0 153 -4 284 -10 298 -17 45 -54 35 -93 -26 -178 -277
-727 -470 -1107 -388 -216 46 -417 129 -595 247 -136 91 -337 292 -428 428
-277 420 -400 964 -367 1628 21 416 93 724 239 1022 237 482 618 781 1145 900
176 39 452 37 691 -6 524 -93 1185 -401 1710 -797 317 -239 621 -536 812 -792
47 -63 273 -438 273 -453 0 -35 -918 -1408 -1337 -1999 -112 -158 -203 -288
-203 -290 0 -2 111 -2 247 -2 l247 1 269 464 c322 557 433 745 585 989 152
244 352 550 361 550 3 0 68 -94 143 -208 229 -346 340 -482 580 -717 166 -163
274 -257 438 -380 58 -43 152 -115 210 -160 537 -418 1090 -635 1618 -635 580
0 1094 274 1475 788 199 269 367 612 457 937 20 72 50 227 50 256 l0 29 -279
0 c-153 0 -299 3 -324 6 l-46 7 -5 -34 c-50 -322 -108 -521 -217 -746 -72
-147 -135 -238 -225 -323 -220 -209 -500 -327 -856 -360 -312 -29 -716 59
-1043 229 -542 280 -902 607 -1198 1089 -122 197 -437 729 -437 737 0 16 377
587 549 830 58 83 287 401 508 708 222 307 403 559 403 561 0 1 -30 -3 -67
-10 -90 -17 -272 -17 -353 1 -59 12 -66 12 -78 -3 -8 -9 -68 -114 -134 -232
-256 -458 -506 -870 -811 -1332 -93 -142 -173 -258 -177 -258 -4 0 -21 26 -38
58 -38 71 -204 292 -317 422 -101 116 -308 319 -432 421 -626 523 -1372 867
-2068 954 -125 16 -440 18 -550 5z"/>
<path d="M10867 5179 c-45 -72 -547 -948 -547 -955 0 -5 1113 7 1119 12 2 2
-46 90 -107 196 -217 379 -434 753 -442 762 -4 4 -15 -2 -23 -15z"/>
<path d="M10226 4065 c-24 -37 -36 -66 -34 -84 l3 -26 635 -3 c654 -3 760 0
760 22 0 7 -16 41 -37 75 l-36 61 -576 0 c-317 0 -599 3 -627 6 l-52 7 -36
-58z"/>
<path d="M10570 3450 l0 -140 253 0 c140 0 288 3 330 6 l77 7 0 133 0 134
-330 0 -330 0 0 -140z"/>
<path d="M10565 3089 c-4 -72 -4 -133 -1 -136 3 -3 157 -2 342 2 l337 7 -7
121 c-4 67 -8 122 -9 123 -1 1 -149 4 -328 7 l-326 6 -8 -130z"/>
<path d="M10560 2704 l0 -132 328 5 c180 3 329 7 331 9 6 6 25 233 20 238 -2
2 -156 6 -341 8 l-338 4 0 -132z"/>
</g>
</svg>
